<svg xmlns="http://www.w3.org/2000/svg" viewBox="0 0 800 600">
  <defs>
    <linearGradient id="wall" x1="0" y1="0" x2="0" y2="1">
      <stop offset="0" stop-color="#8a7362"/>
      <stop offset="1" stop-color="#6f5b4c"/>
    </linearGradient>
    <linearGradient id="deskTop" x1="0" y1="0" x2="0" y2="1">
      <stop offset="0" stop-color="#6b4a30"/>
      <stop offset="1" stop-color="#5a3d27"/>
    </linearGradient>
    <linearGradient id="deskFront" x1="0" y1="0" x2="0" y2="1">
      <stop offset="0" stop-color="#4a3220"/>
      <stop offset="1" stop-color="#3a2718"/>
    </linearGradient>
    <linearGradient id="mirrorGlass" x1="0" y1="0" x2="1" y2="1">
      <stop offset="0" stop-color="#aab8c2"/>
      <stop offset="1" stop-color="#7c8b96"/>
    </linearGradient>
    <radialGradient id="lampGlow" cx="0.5" cy="0.5" r="0.5">
      <stop offset="0" stop-color="#ffdf9a" stop-opacity=".55"/>
      <stop offset="1" stop-color="#ffdf9a" stop-opacity="0"/>
    </radialGradient>
    <radialGradient id="vignette" cx="0.5" cy="0.42" r="0.75">
      <stop offset="0.55" stop-color="#000000" stop-opacity="0"/>
      <stop offset="1" stop-color="#000000" stop-opacity=".38"/>
    </radialGradient>
    <radialGradient id="shadow" cx="0.5" cy="0.5" r="0.5">
      <stop offset="0" stop-color="#000000" stop-opacity=".35"/>
      <stop offset="1" stop-color="#000000" stop-opacity="0"/>
    </radialGradient>
  </defs>

  <!-- wall -->
  <rect x="0" y="0" width="800" height="600" fill="url(#wall)"/>
  <!-- faint wall texture lines -->
  <g stroke="#00000012" stroke-width="1">
    <line x1="0" y1="60" x2="800" y2="60"/>
    <line x1="0" y1="140" x2="800" y2="140"/>
    <line x1="0" y1="220" x2="800" y2="220"/>
  </g>

  <!-- POSTER (hotspot: poster) tilted slightly -->
  <g transform="rotate(-2 176 168)">
    <ellipse cx="176" cy="238" rx="130" ry="10" fill="url(#shadow)"/>
    <rect x="48" y="48" width="256" height="184" rx="4" fill="#c76b4a"/>
    <rect x="48" y="48" width="256" height="184" rx="4" fill="none" stroke="#00000030" stroke-width="2"/>
    <rect x="66" y="70" width="220" height="26" fill="#f2e6c9" opacity=".85"/>
    <rect x="66" y="104" width="140" height="10" fill="#f2e6c9" opacity=".55"/>
    <rect x="66" y="122" width="180" height="10" fill="#f2e6c9" opacity=".55"/>
    <circle cx="230" cy="170" r="34" fill="#e8b23d" opacity=".8"/>
    <path d="M280 48 L304 48 L304 76 Z" fill="#8a4a30"/>
    <!-- worn fold crease + a curled corner for age -->
    <line x1="48" y1="140" x2="304" y2="140" stroke="#00000018" stroke-width="1.5"/>
    <path d="M48 200 Q60 214 48 232 L48 200 Z" fill="#00000022"/>
  </g>

  <!-- MIRROR (hotspot: mirror) top right -->
  <g>
    <ellipse cx="644" cy="278" rx="112" ry="10" fill="url(#shadow)"/>
    <rect x="536" y="40" width="216" height="230" rx="14" fill="#5c3d24"/>
    <rect x="552" y="56" width="184" height="198" rx="8" fill="url(#mirrorGlass)"/>
    <rect x="552" y="56" width="184" height="198" rx="8" fill="#ffffff" opacity=".06"/>
    <!-- glass streak reflections -->
    <path d="M570 66 L586 66 L560 244 L546 244 Z" fill="#ffffff" opacity=".08"/>
    <path d="M700 66 L712 66 L668 244 L658 244 Z" fill="#ffffff" opacity=".06"/>
    <!-- polaroid tucked in the corner -->
    <g transform="rotate(-8 560 250)">
      <rect x="522" y="213" width="84" height="96" fill="#00000030"/>
      <rect x="520" y="210" width="84" height="96" fill="#f5f2ea"/>
      <rect x="528" y="216" width="68" height="60" fill="#5b7a8a"/>
      <rect x="528" y="216" width="68" height="60" fill="#2f4a56" opacity=".35"/>
    </g>
  </g>

  <!-- desk top surface (thin band where the books/lamp sit) -->
  <rect x="0" y="300" width="800" height="46" fill="url(#deskTop)"/>
  <rect x="0" y="300" width="800" height="4" fill="#ffffff" opacity=".08"/>
  <!-- wood grain -->
  <g stroke="#00000020" stroke-width="1">
    <line x1="0" y1="312" x2="800" y2="310"/>
    <line x1="0" y1="326" x2="800" y2="328"/>
    <line x1="0" y1="338" x2="800" y2="336"/>
  </g>
  <!-- a faint coffee-ring stain — pure clutter, not a hotspot -->
  <ellipse cx="180" cy="322" rx="17" ry="6" fill="none" stroke="#2a1c10" stroke-width="1.5" opacity=".3"/>

  <!-- warm lamp glow, drawn before the lamp so the shade sits crisp on top -->
  <ellipse cx="491" cy="272" rx="120" ry="90" fill="url(#lampGlow)"/>

  <!-- small lamp (decorative only, not a hotspot) -->
  <g>
    <ellipse cx="491" cy="300" rx="20" ry="6" fill="url(#shadow)"/>
    <rect x="486" y="248" width="10" height="54" fill="#2a2a2a"/>
    <ellipse cx="491" cy="248" rx="34" ry="16" fill="#e8c96b"/>
    <ellipse cx="491" cy="244" rx="34" ry="14" fill="#ffe9ae" opacity=".5"/>
    <ellipse cx="491" cy="300" rx="16" ry="6" fill="#2a2a2a"/>
  </g>
  <!-- pen holder (decorative) -->
  <ellipse cx="435" cy="300" rx="20" ry="5" fill="url(#shadow)"/>
  <rect x="420" y="272" width="30" height="30" rx="3" fill="#3d5a4a"/>
  <rect x="420" y="272" width="30" height="8" rx="3" fill="#000000" opacity=".15"/>
  <line x1="428" y1="250" x2="424" y2="274" stroke="#c9a24b" stroke-width="4" stroke-linecap="round"/>
  <line x1="440" y1="246" x2="438" y2="274" stroke="#7bb0d8" stroke-width="4" stroke-linecap="round"/>
  <!-- a loose pen, fallen beside the holder — clutter -->
  <rect x="456" y="296" width="34" height="4" rx="2" fill="#c9a24b" transform="rotate(8 473 298)"/>

  <!-- BOOKS stack (hotspot: books) sitting on the desk top -->
  <g>
    <ellipse cx="347" cy="276" rx="80" ry="7" fill="url(#shadow)"/>
    <rect x="272" y="252" width="150" height="20" rx="2" fill="#7a3b3b"/>
    <rect x="272" y="252" width="150" height="5" fill="#ffffff" opacity=".08"/>
    <rect x="278" y="230" width="132" height="22" rx="2" fill="#3b5a7a"/>
    <rect x="278" y="230" width="132" height="5" fill="#ffffff" opacity=".08"/>
    <rect x="284" y="206" width="112" height="24" rx="2" fill="#7a6a3b"/>
    <rect x="284" y="206" width="112" height="5" fill="#ffffff" opacity=".08"/>
  </g>

  <!-- desk front panel -->
  <rect x="0" y="346" width="800" height="254" fill="url(#deskFront)"/>
  <rect x="0" y="346" width="800" height="6" fill="#000000" opacity=".2"/>
  <!-- wood grain -->
  <g stroke="#00000022" stroke-width="1">
    <line x1="0" y1="380" x2="800" y2="378"/>
    <line x1="0" y1="560" x2="800" y2="562"/>
  </g>

  <!-- DRAWER (hotspot: drawer) inset in the desk front, containing the diary hotspot once opened -->
  <g>
    <rect x="240" y="408" width="320" height="132" rx="6" fill="#2f2015" stroke="#1c130c" stroke-width="3"/>
    <rect x="240" y="408" width="320" height="132" rx="6" fill="#ffffff" opacity=".03"/>
    <rect x="240" y="408" width="320" height="8" rx="4" fill="#ffffff" opacity=".05"/>
    <!-- handle -->
    <rect x="372" y="466" width="56" height="14" rx="7" fill="#c9a24b"/>
    <rect x="372" y="466" width="56" height="5" rx="3" fill="#ffe6ab" opacity=".5"/>
    <circle cx="380" cy="473" r="5" fill="#8a6d2c"/>
    <circle cx="420" cy="473" r="5" fill="#8a6d2c"/>
    <!-- keyhole hint -->
    <circle cx="400" cy="430" r="6" fill="#0e0a06"/>
    <rect x="397" y="430" width="6" height="12" fill="#0e0a06"/>
  </g>

  <!-- CHAIR (hotspot: chair) bottom-left, partially in frame -->
  <g transform="translate(30,420)">
    <ellipse cx="75" cy="196" rx="78" ry="10" fill="url(#shadow)"/>
    <rect x="0" y="0" width="150" height="18" rx="4" fill="#4a3220"/>
    <rect x="0" y="18" width="150" height="120" rx="6" fill="#5a3d27"/>
    <rect x="0" y="18" width="150" height="16" fill="#ffffff" opacity=".06"/>
    <rect x="10" y="-96" width="130" height="96" rx="10" fill="#5a3d27"/>
    <rect x="10" y="-96" width="130" height="96" rx="10" fill="#000000" opacity=".12"/>
    <rect x="18" y="-88" width="114" height="10" rx="4" fill="#ffffff" opacity=".05"/>
    <rect x="6" y="130" width="14" height="70" fill="#2a1c10"/>
    <rect x="130" y="130" width="14" height="70" fill="#2a1c10"/>
  </g>

  <!-- floor -->
  <rect x="0" y="588" width="800" height="12" fill="#241a12"/>

  <!-- overall vignette for mood, drawn last so it sits over everything -->
  <rect x="0" y="0" width="800" height="600" fill="url(#vignette)"/>
</svg>
